<?xml version="1.0" encoding="UTF-8"?>
<!DOCTYPE svg PUBLIC "-//W3C//DTD SVG 1.1//EN" "http://www.w3.org/Graphics/SVG/1.1/DTD/svg11.dtd">
<!-- Creator: CorelDRAW X8 -->
<svg xmlns="http://www.w3.org/2000/svg" xml:space="preserve" width="210mm" height="297mm" version="1.1" style="shape-rendering:geometricPrecision; text-rendering:geometricPrecision; image-rendering:optimizeQuality; fill-rule:evenodd; clip-rule:evenodd"
viewBox="0 0 21000 29700"
 xmlns:xlink="http://www.w3.org/1999/xlink">
 <defs>
  <style type="text/css">
   <![CDATA[
    .fil1 {fill:#129574;fill-rule:nonzero}
    .fil0 {fill:#263B50;fill-rule:nonzero}
    .fil2 {fill:#223A4F;fill-rule:nonzero}
   ]]>
  </style>
 </defs>
 <g id="Слой_x0020_1">
  <metadata id="CorelCorpID_0Corel-Layer"/>
  <path class="fil0" d="M14320 6592l-415 691c-8,14 -31,8 -31,-9l0 -674c0,-9 -7,-17 -17,-17l-309 0c-9,0 -16,8 -16,17l0 1260c0,9 7,17 16,17l344 0c6,0 11,-3 14,-9l406 -685c8,-15 31,-9 31,8l0 669c0,9 7,17 17,17l309 0c9,0 16,-8 16,-17l0 -1260c0,-9 -7,-17 -16,-17l-334 0c-6,0 -12,4 -15,9z"/>
  <path class="fil0" d="M4757 6430l0 -264c0,-9 7,-17 17,-17l1383 0c9,0 17,8 17,17l0 264c0,9 -8,17 -17,17l-495 0c-9,0 -17,8 -17,17l0 1398c0,10 -7,17 -17,17l-326 0c-9,0 -17,-7 -17,-17l0 -1398c0,-9 -8,-17 -17,-17l-494 0c-10,0 -17,-8 -17,-17z"/>
  <path class="fil0" d="M11825 7281c0,-13 -13,-21 -24,-16 -21,10 -41,18 -60,24 -27,9 -63,18 -109,28 -86,16 -140,29 -162,37 -36,15 -63,36 -82,62 -18,26 -27,57 -27,95 0,51 18,76 41,98 24,24 79,38 129,38 74,0 141,-23 202,-71 62,-48 92,-124 92,-228l0 -67zm-427 -276l-301 0c-9,0 -17,-8 -17,-18 4,-118 50,-224 141,-303 95,-84 241,-125 437,-125 85,0 162,9 231,26 69,18 120,41 154,69 34,27 59,63 78,106 25,57 37,127 37,211l-1 655c0,76 7,127 20,151 11,22 27,37 47,46 6,2 11,8 11,15l0 24c0,10 -8,17 -17,17l-340 0c-7,0 -14,-4 -16,-11 -13,-33 -21,-66 -25,-101 -2,-14 -19,-20 -29,-10 -58,57 -113,97 -164,121 -59,27 -129,40 -211,40 -84,0 -157,-16 -219,-48 -62,-32 -108,-79 -139,-140 -30,-61 -46,-127 -46,-198 0,-107 29,-196 85,-268 56,-72 159,-120 310,-143l282 -42c46,-6 77,-18 94,-35 17,-17 25,-40 25,-69 0,-46 -15,-82 -46,-108 -31,-26 -83,-39 -156,-39 -76,0 -129,13 -161,39 -29,24 -44,64 -47,122 0,9 -8,16 -17,16z"/>
  <path class="fil0" d="M8017 7281c0,-13 -13,-21 -24,-16 -20,10 -40,18 -60,24 -27,9 -63,18 -109,28 -86,16 -140,29 -162,37 -36,15 -63,36 -81,62 -18,26 -27,57 -27,95 0,51 18,76 40,98 25,24 79,38 129,38 74,0 141,-23 202,-71 62,-48 92,-124 92,-228l0 -67zm-427 -276l-301 0c-9,0 -17,-8 -17,-18 4,-118 50,-224 141,-303 95,-84 241,-125 437,-125 85,0 162,9 231,26 69,18 120,41 154,69 34,27 60,63 78,106 25,57 37,127 37,211l-1 655c0,76 7,127 20,151 12,22 27,37 47,46 7,2 11,8 11,15l0 24c0,10 -8,17 -17,17l-340 0c-7,0 -13,-4 -16,-11 -13,-33 -21,-66 -25,-101 -2,-14 -19,-20 -29,-10 -58,57 -113,97 -164,121 -59,27 -129,40 -211,40 -84,0 -157,-16 -219,-48 -62,-32 -108,-79 -138,-140 -31,-61 -46,-127 -46,-198 0,-107 28,-196 84,-268 56,-72 159,-120 310,-143l282 -42c46,-6 77,-18 94,-35 17,-17 25,-40 25,-69 0,-46 -15,-82 -46,-108 -31,-26 -83,-39 -156,-39 -75,0 -129,13 -161,39 -29,24 -44,64 -47,122 0,9 -8,16 -17,16z"/>
  <path class="fil1" d="M13532 6442l0 -279c0,-8 6,-15 14,-17l314 0c8,2 14,9 14,17l0 279c0,9 -8,17 -17,17l-308 0c-10,0 -17,-8 -17,-17z"/>
  <path class="fil0" d="M6518 6828c-94,0 -165,37 -213,112 -48,75 -71,168 -71,279 0,132 26,230 80,294 54,63 121,95 204,95 82,0 150,-31 203,-95 54,-63 81,-161 81,-294 0,-110 -24,-203 -71,-278 -48,-75 -119,-113 -213,-113zm-615 1439l0 -1666c0,-10 7,-17 16,-17l283 0c10,0 17,7 17,17l0 110c0,16 21,23 31,9 19,-26 42,-58 59,-73 31,-28 67,-54 114,-73 47,-18 102,-28 165,-28 97,0 181,19 250,56 70,38 123,81 162,132 38,50 70,116 95,197 25,80 37,172 37,274 0,125 -20,243 -59,353 -39,109 -101,192 -185,249 -85,56 -185,84 -301,84 -84,0 -152,-19 -207,-51 -42,-25 -91,-70 -117,-108 -9,-13 -30,-5 -30,11l0 524c0,9 -7,17 -17,17l-297 0c-9,0 -16,-8 -16,-17z"/>
  <path class="fil0" d="M10618 7005c-8,0 -16,-7 -16,-15 -5,-51 -31,-91 -61,-115 -36,-29 -82,-45 -143,-45 -82,0 -144,26 -185,77 -53,68 -79,175 -79,324 0,140 22,239 68,295 45,57 105,85 179,85 65,0 119,-15 162,-56 36,-35 54,-73 58,-105 1,-8 8,-15 17,-15l305 0c9,0 17,9 16,19 -4,67 -35,137 -82,210 -50,78 -120,134 -202,172 -83,38 -176,57 -278,57 -126,0 -234,-28 -324,-83 -91,-56 -157,-135 -199,-237 -43,-102 -64,-212 -64,-329 0,-146 24,-272 71,-380 48,-108 119,-187 214,-239 95,-51 200,-76 315,-76 74,0 143,9 205,29 62,19 114,44 157,74 43,30 78,65 107,105 29,39 43,70 60,110 14,33 20,67 21,121 0,9 -8,17 -17,17l-305 0z"/>
  <path class="fil0" d="M9349 6601l0 466c0,9 -7,16 -17,16l-444 0c-9,0 -17,-7 -17,-16l0 -466c0,-10 -7,-17 -17,-17l-305 0c-10,0 -17,7 -17,17l0 1259c0,9 7,17 17,17l305 0c10,0 17,-8 17,-17l0 -495c0,-10 8,-17 17,-17l444 0c10,0 17,7 17,17l0 495c0,9 8,17 17,17l306 0c9,0 17,-8 17,-17l0 -1259c0,-10 -8,-17 -17,-17l-306 0c-9,0 -17,7 -17,17z"/>
  <path class="fil2" d="M13195 7221c-16,-5 -17,-27 -2,-32 112,-41 191,-119 191,-266 0,-186 -186,-351 -548,-351 -151,0 -294,29 -387,99 -133,98 -156,264 -160,318 -1,10 7,18 17,18l305 0c8,0 16,-6 16,-15 3,-27 13,-84 58,-117 37,-27 92,-39 151,-39 138,0 209,63 209,134 0,108 -112,153 -209,153l-191 0c-9,0 -16,7 -16,17l0 174c0,10 7,17 16,17l191 0c0,0 266,2 266,155 0,94 -87,168 -257,168 -87,0 -162,-25 -208,-66 -39,-34 -48,-84 -49,-109 -1,-9 -8,-16 -17,-16l-307 0c-9,0 -17,8 -17,18 1,42 10,152 66,230 96,135 295,207 532,207 394,0 597,-183 597,-400 0,-173 -105,-257 -247,-297z"/>
  <path class="fil0" d="M15322 7164c-90,0 -163,-80 -163,-179 0,-98 73,-178 163,-178l238 0c9,0 17,8 17,17l0 323c0,9 -8,17 -17,17l-238 0zm-141 -580c-199,0 -360,176 -360,393 0,193 127,354 295,387 12,3 18,17 10,26l-332 460c-8,11 0,27 14,27l367 0c6,0 11,-3 15,-8l304 -490c3,-5 9,-8 15,-8l51 0c9,0 17,7 17,16l0 473c0,9 7,17 17,17l305 0c9,0 16,-8 16,-17l0 -1259c0,-10 -7,-17 -16,-17l-718 0z"/>
 </g>
</svg>
